<svg xmlns="http://www.w3.org/2000/svg" width="38" height="23" viewBox="0 0 38 23">
    <g fill="#575757" fill-rule="evenodd">
        <path d="M4 1.5C4 .672 4.68 0 5.505 0h30.99C37.326 0 38 .666 38 1.5c0 .828-.68 1.5-1.505 1.5H5.505A1.499 1.499 0 0 1 4 1.5zM9 11.5c0-.828.674-1.5 1.498-1.5h26.004c.827 0 1.498.666 1.498 1.5 0 .828-.674 1.5-1.498 1.5H10.498A1.495 1.495 0 0 1 9 11.5zM0 21.5c0-.828.676-1.5 1.501-1.5H36.5c.829 0 1.501.666 1.501 1.5 0 .828-.676 1.5-1.501 1.5H1.5C.672 23 0 22.334 0 21.5z"/>
    </g>
</svg>
